<?xml version="1.0" encoding="UTF-8"?><svg id="Layer_1" xmlns="http://www.w3.org/2000/svg" viewBox="0 0 924.5 160.11"><polygon points="0 1.13 0 159.99 160 159.99 160 .13 79.5 80.63 0 1.13"/><path d="M836.06,0c-.19,0-.37,.01-.56,.01V160.1c.19,0,.37,.01,.56,.01,48.84,0,88.44-35.84,88.44-80.06S884.91,0,836.06,0Z"/><polygon points="599.5 43.06 556.5 .06 556.5 160.06 716.5 160.06 673.5 117.06 599.5 117.06 599.5 43.06"/><path d="M358.5,119.54c-.17,0-.33,.01-.5,.01-19.76,0-35.77-16.02-35.77-35.77,0-.08,0-.15,0-.23h114.18c.05-1.16,.09-2.33,.09-3.5,0-43.35-35.15-78.5-78.5-78.5s-78.5,35.15-78.5,78.5,35.15,78.5,78.5,78.5c28.95,0,54.22-15.68,67.83-39h-67.33Z"/></svg>